<?xml version="1.0" encoding="UTF-8"?>
<svg id="Layer_1" data-name="Layer 1" xmlns="http://www.w3.org/2000/svg" version="1.1" xmlns:xlink="http://www.w3.org/1999/xlink" viewBox="0 0 307.4 88.6">
  <defs>
    <style>
      .cls-1 {
        clip-path: url(#clippath-20);
      }

      .cls-2 {
        clip-path: url(#clippath-11);
      }

      .cls-3 {
        clip-path: url(#clippath-16);
      }

      .cls-4 {
        clip-path: url(#clippath-2);
      }

      .cls-5 {
        clip-path: url(#clippath-13);
      }

      .cls-6 {
        clip-path: url(#clippath-25);
      }

      .cls-7 {
        clip-path: url(#clippath-15);
      }

      .cls-8 {
        clip-path: url(#clippath-6);
      }

      .cls-9 {
        fill: none;
      }

      .cls-9, .cls-10, .cls-11, .cls-12 {
        stroke-width: 0px;
      }

      .cls-13 {
        clip-path: url(#clippath-7);
      }

      .cls-14 {
        clip-path: url(#clippath-21);
      }

      .cls-15 {
        clip-path: url(#clippath-1);
      }

      .cls-16 {
        clip-path: url(#clippath-4);
      }

      .cls-17 {
        opacity: .4;
      }

      .cls-18 {
        clip-path: url(#clippath-12);
      }

      .cls-10 {
        fill: #48ae4d;
      }

      .cls-19 {
        clip-path: url(#clippath-24);
      }

      .cls-20 {
        clip-path: url(#clippath-22);
      }

      .cls-21 {
        clip-path: url(#clippath-9);
      }

      .cls-22 {
        clip-path: url(#clippath);
      }

      .cls-11 {
        fill: #64328a;
      }

      .cls-23 {
        clip-path: url(#clippath-19);
      }

      .cls-24 {
        clip-path: url(#clippath-3);
      }

      .cls-25 {
        clip-path: url(#clippath-8);
      }

      .cls-12 {
        fill: #fff;
      }

      .cls-26 {
        clip-path: url(#clippath-18);
      }

      .cls-27 {
        clip-path: url(#clippath-14);
      }

      .cls-28 {
        clip-path: url(#clippath-17);
      }

      .cls-29 {
        clip-path: url(#clippath-5);
      }

      .cls-30 {
        clip-path: url(#clippath-10);
      }

      .cls-31 {
        clip-path: url(#clippath-23);
      }
    </style>
    <clipPath id="clippath">
      <rect class="cls-9" x="168.5" y="43.9" width="5.5" height="17.1"/>
    </clipPath>
    <clipPath id="clippath-1">
      <rect class="cls-9" x="168.5" y="11.1" width="5.5" height="32.9" rx="1.6" ry="1.6"/>
    </clipPath>
    <clipPath id="clippath-2">
      <rect class="cls-9" x="168.5" y="11.1" width="5.5" height="2.5"/>
    </clipPath>
    <clipPath id="clippath-3">
      <rect class="cls-9" x="168.5" y="41.3" width="5.5" height="2.6"/>
    </clipPath>
    <clipPath id="clippath-4">
      <rect class="cls-9" x="168.5" y="14.6" width="5.5" height=".6"/>
    </clipPath>
    <clipPath id="clippath-5">
      <rect class="cls-9" x="168.5" y="18" width="5.5" height=".6"/>
    </clipPath>
    <clipPath id="clippath-6">
      <rect class="cls-9" x="168.5" y="21.3" width="5.5" height=".6"/>
    </clipPath>
    <clipPath id="clippath-7">
      <rect class="cls-9" x="168.5" y="27.5" width="5.5" height=".6"/>
    </clipPath>
    <clipPath id="clippath-8">
      <rect class="cls-9" x="168.5" y="28.8" width="5.5" height=".6"/>
    </clipPath>
    <clipPath id="clippath-9">
      <rect class="cls-9" x="168.5" y="30.1" width="5.5" height=".6"/>
    </clipPath>
    <clipPath id="clippath-10">
      <rect class="cls-9" x="168.5" y="25.4" width="5.5" height="1.1"/>
    </clipPath>
    <clipPath id="clippath-11">
      <rect class="cls-9" x="168.5" y="32.9" width="5.5" height="1.1"/>
    </clipPath>
    <clipPath id="clippath-12">
      <rect class="cls-9" x="168.5" y="37.5" width="5.5" height="1"/>
    </clipPath>
    <clipPath id="clippath-13">
      <rect class="cls-9" x="179.7" y="43.9" width="5.5" height="17.1"/>
    </clipPath>
    <clipPath id="clippath-14">
      <rect class="cls-9" x="179.7" y="11.1" width="5.5" height="32.9" rx="1.6" ry="1.6"/>
    </clipPath>
    <clipPath id="clippath-15">
      <rect class="cls-9" x="179.7" y="11.1" width="5.5" height="2.5"/>
    </clipPath>
    <clipPath id="clippath-16">
      <rect class="cls-9" x="179.7" y="41.3" width="5.5" height="2.6"/>
    </clipPath>
    <clipPath id="clippath-17">
      <rect class="cls-9" x="179.7" y="14.6" width="5.5" height=".6"/>
    </clipPath>
    <clipPath id="clippath-18">
      <rect class="cls-9" x="179.7" y="18" width="5.5" height=".6"/>
    </clipPath>
    <clipPath id="clippath-19">
      <rect class="cls-9" x="179.7" y="21.3" width="5.5" height=".6"/>
    </clipPath>
    <clipPath id="clippath-20">
      <rect class="cls-9" x="179.7" y="27.5" width="5.5" height=".6"/>
    </clipPath>
    <clipPath id="clippath-21">
      <rect class="cls-9" x="179.7" y="28.8" width="5.5" height=".6"/>
    </clipPath>
    <clipPath id="clippath-22">
      <rect class="cls-9" x="179.7" y="30.1" width="5.5" height=".6"/>
    </clipPath>
    <clipPath id="clippath-23">
      <rect class="cls-9" x="179.7" y="25.4" width="5.5" height="1.1"/>
    </clipPath>
    <clipPath id="clippath-24">
      <rect class="cls-9" x="179.7" y="32.9" width="5.5" height="1.1"/>
    </clipPath>
    <clipPath id="clippath-25">
      <rect class="cls-9" x="179.7" y="37.5" width="5.5" height="1"/>
    </clipPath>
  </defs>
  <g>
    <path class="cls-10" d="M153.9,38.6c.9,0,1.7,0,2.4.3.7.2,1.3.5,1.8.8.5.3.9.7,1.3,1.1.4.4.7.8.9,1.2.6,1,.9,2.2,1,3.4h-11.7c0,1.5.2,2.7.6,3.8.4,1.1.9,2,1.5,2.7.6.7,1.3,1.3,2.1,1.7.8.4,1.6.6,2.5.6.8,0,1.7,0,2.5-.4.8-.3,1.5-.7,2.2-1.3l.3.2c-.3.4-.6.9-1.2,1.3-.5.4-1.1.8-1.8,1.2-.7.4-1.5.7-2.3.9-.8.2-1.7.3-2.6.3-1.3,0-2.5-.3-3.6-.8-1-.5-1.9-1.2-2.6-2-.7-.8-1.2-1.8-1.6-2.9-.4-1.1-.6-2.2-.6-3.3,0-1.1.1-2.2.5-3.3.3-1.1.9-2,1.6-2.9.7-.8,1.6-1.5,2.7-2,1.1-.5,2.4-.8,3.9-.8M156.8,45c0-1.8-.3-3.3-.8-4.3-.6-1.1-1.4-1.6-2.6-1.6s-1.2.2-1.6.5c-.5.3-.9.8-1.2,1.3-.3.6-.5,1.2-.7,1.9-.2.7-.2,1.4-.2,2.2h7.2Z"/>
    <path class="cls-10" d="M194.3,55.5c.4-.4.6-.8.6-1.3v-11.8c0-.5-.2-1-.6-1.4-.4-.4-.8-.6-1.3-.6h-.8v-.2l7-1.6v4.3c.2-1,.6-1.9,1.3-2.6.7-.7,1.4-1.2,2.3-1.5.9-.3,1.8-.4,2.7-.3.9,0,1.8.4,2.6,1,.8.5,1.4,1.3,2,2.3.5,1,.8,2.3.8,3.8v8.5c0,.5.2,1,.6,1.3.4.4.8.6,1.3.6h.8v.2h-9.7v-.2h.7c.5,0,1-.2,1.4-.6.4-.4.6-.8.6-1.3v-8.5c0-1.3-.2-2.4-.5-3.3-.4-.9-.8-1.5-1.3-2-.5-.4-1.1-.6-1.8-.6-.6,0-1.2.2-1.8.7-.5.5-1,1.1-1.3,2.1-.4.9-.5,2.1-.5,3.4v8.3c0,.5.2,1,.6,1.3.4.4.8.6,1.3.6h.8v.2h-9.7v-.2h.8c.5,0,1-.2,1.3-.6"/>
    <path class="cls-10" d="M223.2,38.6c.9,0,1.7,0,2.4.3.7.2,1.3.5,1.8.8.5.3.9.7,1.3,1.1.4.4.7.8.9,1.2.6,1,.9,2.2,1,3.4h-11.7c0,1.5.2,2.7.6,3.8.4,1.1.9,2,1.5,2.7.6.7,1.3,1.3,2.1,1.7.8.4,1.6.6,2.5.6.8,0,1.7,0,2.5-.4.8-.3,1.5-.7,2.2-1.3l.3.2c-.3.4-.6.9-1.2,1.3-.5.4-1.1.8-1.8,1.2-.7.4-1.5.7-2.3.9-.8.2-1.7.3-2.6.3-1.3,0-2.5-.3-3.6-.8-1-.5-1.9-1.2-2.6-2-.7-.8-1.2-1.8-1.6-2.9-.4-1.1-.6-2.2-.6-3.3,0-1.1.1-2.2.5-3.3.3-1.1.9-2,1.6-2.9.7-.8,1.6-1.5,2.7-2,1.1-.5,2.4-.8,3.9-.8M226.1,45c0-1.8-.3-3.3-.8-4.3-.6-1.1-1.4-1.6-2.6-1.6s-1.2.2-1.6.5c-.5.3-.9.8-1.2,1.3-.3.6-.5,1.2-.7,1.9-.2.7-.2,1.4-.2,2.2h7.2Z"/>
    <path class="cls-10" d="M232.1,42.8c0-.9.2-1.6.7-2.2.4-.6,1-1,1.6-1.3.6-.3,1.3-.5,2-.6.7-.1,1.4-.2,1.9-.2.9,0,1.6.1,2.3.4.7.3,1.2.5,1.7.7.4.2.8.2,1,.2.2,0,.3-.4.3-1.1h.3l.6,5.5h-.3c-.1-1-.4-1.9-.9-2.6-.5-.7-1-1.3-1.6-1.7-.6-.4-1.3-.7-1.9-.8-.7-.1-1.3-.1-1.9,0-.6.2-1,.4-1.4.8-.4.4-.6.9-.6,1.5s.2,1.4.7,1.9c.5.5,1.1.9,1.8,1.3.7.4,1.5.7,2.3,1,.8.3,1.6.7,2.3,1.2.7.5,1.3,1,1.8,1.7.5.7.7,1.5.7,2.6s-.1,1.5-.4,2.1c-.3.6-.6,1.1-1.1,1.4-.4.4-.9.7-1.5,1-.6.2-1.1.4-1.6.6-.5.1-1.1.2-1.5.3-.5,0-.9,0-1.2,0-1.2,0-2.1-.1-2.8-.4-.7-.3-1.3-.5-1.6-.7-.4-.2-.6-.2-.7-.2-.1,0-.2.4-.2,1h-.3l-.6-5.5h.3c.1,1.1.4,2,.9,2.7.5.7,1.1,1.3,1.8,1.7.7.4,1.4.6,2.1.7.7,0,1.4,0,2-.2.6-.2,1.1-.6,1.6-1.2.4-.5.6-1.2.6-2s-.2-1.5-.7-2c-.5-.5-1-.9-1.7-1.3-.7-.4-1.4-.7-2.2-1-.8-.3-1.5-.7-2.2-1.2-.7-.5-1.2-1-1.7-1.7-.5-.7-.7-1.5-.7-2.6"/>
    <path class="cls-10" d="M247,42.8c0-.9.2-1.6.7-2.2.4-.6,1-1,1.6-1.3.6-.3,1.3-.5,2-.6.7-.1,1.4-.2,1.9-.2.9,0,1.6.1,2.3.4.7.3,1.2.5,1.7.7.4.2.8.2,1,.2.2,0,.3-.4.3-1.1h.3l.6,5.5h-.3c-.1-1-.4-1.9-.9-2.6-.5-.7-1-1.3-1.6-1.7-.6-.4-1.3-.7-1.9-.8-.7-.1-1.3-.1-1.9,0-.6.2-1,.4-1.4.8-.4.4-.6.9-.6,1.5s.2,1.4.7,1.9c.5.5,1.1.9,1.8,1.3.7.4,1.5.7,2.3,1,.8.3,1.6.7,2.3,1.2.7.5,1.3,1,1.8,1.7.5.7.7,1.5.7,2.6s-.1,1.5-.4,2.1c-.3.6-.6,1.1-1.1,1.4-.4.4-.9.7-1.5,1-.6.2-1.1.4-1.6.6-.5.1-1.1.2-1.5.3-.5,0-.9,0-1.2,0-1.2,0-2.1-.1-2.8-.4-.7-.3-1.3-.5-1.6-.7-.4-.2-.6-.2-.7-.2-.1,0-.2.4-.2,1h-.3l-.6-5.5h.3c.1,1.1.4,2,.9,2.7.5.7,1.1,1.3,1.8,1.7.7.4,1.4.6,2.1.7.7,0,1.4,0,2-.2.6-.2,1.1-.6,1.6-1.2.4-.5.6-1.2.6-2s-.2-1.5-.7-2c-.5-.5-1-.9-1.7-1.3-.7-.4-1.4-.7-2.2-1-.8-.3-1.5-.7-2.2-1.2-.7-.5-1.2-1-1.7-1.7-.5-.7-.7-1.5-.7-2.6"/>
    <path class="cls-10" d="M141.9,38.9h0c-.4-2.8-1.5-5-3-6.4-1.6-1.5-3.3-2.2-5.2-2.2h-1.4c-.4,0-.9.1-1.5.4-.3.1-1.2.5-1.2,1.4s0,.9,1.2.9,1,0,1.8-.3c.4,0,.8,0,1.1,0,1.6,0,2.7.5,3.6,1.6.9,1.1,1.4,2.9,1.4,5.2s-.7,5.3-2.2,8.7c-1.3,3-3.7,5.9-7.1,8.6-3.1,2.5-5.7,3.8-7.8,3.8s-2.9-.4-2.9-3.7,0-1.3.2-2.4c.1-1,.9-3.2,2.3-6.6,1.4-3.5,2.2-5.4,2.4-5.9.2-.6.3-1.2.3-1.9,0-1.1-.5-1.6-.9-1.8h0c-1.1-.5-2.2.1-3.5,1.9-.9,1.2-2.4,3.6-4.5,7.3-2.1,3.6-4.1,6.7-6.1,9.4-1.9,2.6-3.7,4.4-5.2,5.4-.5.4-.9.4-1.1.4s-.5,0-.5-1c0-1.5.9-4.8,2.7-9.8,1.3-3.6,2.6-7,4-10.1,2.1-4.7,3.1-8.7,3.1-11.7s-1.6-6.6-4.8-8c-1.7-.6-3.6-1-5.6-1s-4.3.5-6.7,1.4c-2.3.9-4.4,2-6.5,3.4-2.1,1.3-4,3-5.7,5-1.7,2-3.1,4.2-4.2,6.5-1,2.3-1.5,4.6-1.5,6.6s0,1,0,1.5c.4,2.4,1.2,4.5,2.5,6,1.9,2.3,4.5,3.4,7.6,3.4s2.1-.2,3.2-.7c4.2-1.7,7.1-4.5,8.7-8.2.6-1.4.9-2.8.9-3.9s-.3-2.2-.8-3c-.9-1.4-2.2-2.1-4-2.1s-1.7.1-2.6.4c-.9.3-1.6.6-1.7,1.2,0,.3,0,.5.2.7.3.3.8.3,1.3.2.5,0,.9-.1,1.3-.1,1.9,0,2.7,1,2.7,3.1s-.5,3-1.5,4.8c-2,3.5-4.6,5.2-7.9,5.2s-3.4-.6-4.5-1.8c-.6-.7-1-1.4-1.2-2.2-.2-.8-.4-1.6-.4-2.2s0-1.5.2-2.5c.1-1,.5-2.6,1.3-4.7.8-2.1,2.2-4.3,4.2-6.6,4.1-4.6,8.8-7.5,14-8.6,2.4-.5,4.4-.2,5.9.8,1,.6,1.5,1.8,1.5,3.5,0,2.9-1.2,7.4-3.7,13.4-4.1,9.7-6.1,15.9-6.1,19.1s2.1,4.6,3.9,4.6,2.7-.6,4.4-1.9c1.5-1.2,3-2.6,4.5-4.4,1.7-2,3.2-4,4.5-5.9,0,.6-.1,1.2-.1,1.7,0,1.4.1,2.5.3,3.3.8,3.2,3,4.9,6.5,4.9s6.7-1.4,10.4-4.1c3.7-2.7,6.4-6.1,7.9-10,1.1-2.9,1.6-5.6,1.6-7.9s0-1.4-.1-2.1"/>
    <path class="cls-11" d="M269.3,43.7v1.5h0c.8-1.1,1.8-1.7,3.3-1.7s1.2.1,1.7.4c.5.3.9.7,1.1,1.3.3-.5.8-1,1.3-1.3.6-.3,1.2-.4,1.8-.4s1,0,1.4.2c.4.1.8.3,1.1.5.3.2.5.5.7.9s.2.8.2,1.3v7.4h-1.7v-6.6c0-.3,0-.6,0-.9,0-.3-.1-.5-.3-.7-.1-.2-.3-.4-.6-.5-.3-.1-.6-.2-1-.2-.8,0-1.5.2-1.9.7-.5.5-.7,1.1-.7,1.9v6.3h-1.7v-6.6c0-.3,0-.6,0-.9,0-.3-.2-.5-.3-.7-.1-.2-.3-.4-.6-.5-.2-.1-.5-.2-.9-.2s-.9,0-1.2.3c-.3.2-.6.4-.8.7-.2.3-.4.6-.5.8,0,.3-.1.5-.1.7v6.3h-1.7v-10.1h1.6Z"/>
    <path class="cls-11" d="M293.3,53.7c-.3.2-.7.3-1.2.3s-.8-.1-1-.4-.4-.6-.4-1.2c-.5.5-1,.9-1.6,1.2-.6.2-1.3.4-2,.4s-.9,0-1.3-.2c-.4-.1-.8-.3-1.1-.5-.3-.2-.5-.5-.7-.9-.2-.4-.3-.8-.3-1.3s0-1,.3-1.4c.2-.4.5-.7.8-.9.3-.2.7-.4,1.1-.5.4-.1.8-.2,1.3-.3.5,0,.9-.2,1.3-.2.4,0,.8-.1,1.1-.2.3,0,.6-.2.7-.4.2-.2.3-.4.3-.7s0-.7-.2-.9c-.1-.2-.3-.4-.5-.5-.2-.1-.5-.2-.7-.2-.3,0-.5,0-.8,0-.7,0-1.3.1-1.8.4-.5.3-.7.8-.8,1.5h-1.7c0-.6.2-1.2.4-1.6.2-.4.5-.8.9-1,.4-.3.8-.5,1.3-.6.5-.1,1-.2,1.6-.2s.9,0,1.4,0c.4,0,.9.2,1.2.4.4.2.7.5.9.8.2.4.3.8.3,1.4v5.2c0,.4,0,.7,0,.9,0,.2.2.3.5.3s.3,0,.5,0v1.3ZM290.6,48.5c-.2.2-.5.3-.8.3-.3,0-.7.1-1.1.2-.4,0-.7,0-1.1.2-.4,0-.7.2-1,.3-.3.1-.5.3-.7.6-.2.2-.3.6-.3,1s0,.5.2.7c.1.2.3.3.4.5.2.1.4.2.6.3.2,0,.5,0,.7,0,.5,0,1,0,1.4-.2.4-.1.7-.3,1-.6.2-.2.4-.5.5-.7.1-.3.2-.5.2-.7v-1.7Z"/>
    <path class="cls-11" d="M296.5,43.7v1.4h0c.3-.6.7-1,1.3-1.2.6-.3,1.2-.4,1.9-.4s1.5.1,2,.4c.6.3,1.1.7,1.4,1.2.4.5.7,1.1.9,1.7.2.6.3,1.3.3,2s0,1.4-.3,2c-.2.6-.5,1.2-.9,1.7-.4.5-.9.8-1.4,1.1-.6.3-1.3.4-2,.4s-.5,0-.8,0c-.3,0-.6-.1-.9-.3-.3-.1-.6-.3-.8-.5-.3-.2-.5-.5-.7-.8h0v5.2h-1.7v-13.9h1.7ZM302.5,47.2c-.1-.4-.3-.8-.6-1.2-.3-.4-.6-.6-1-.8-.4-.2-.9-.3-1.4-.3s-1,.1-1.4.3c-.4.2-.7.5-1,.9-.2.4-.4.8-.5,1.2-.1.5-.2.9-.2,1.4s0,1,.2,1.4c.1.5.3.9.6,1.2.3.4.6.6,1,.8.4.2.9.3,1.5.3s1-.1,1.4-.3c.4-.2.7-.5.9-.9.2-.4.4-.8.5-1.2.1-.5.2-.9.2-1.4s0-.9-.2-1.4"/>
    <path class="cls-10" d="M64.8,35.5c0-.1.2-.2.3-.4,0-.1.1-.3.1-.5,0-1,0-2,0-3,0-.2,0-.4,0-.6,0-.1,0-.2-.1-.3,0,0,0-.2,0-.3,0-.3,0-.6,0-.9,0-.2,0-.4-.2-.5,0,0,0-.2,0-.3,0-.2,0-.5,0-.7,0-.2,0-.3-.2-.4,0,0,0-.2,0-.3,0-.2,0-.4,0-.6,0,0,0-.2,0-.2-.2-.1-.2-.3-.2-.5,0-.2,0-.5-.2-.7,0,0,0-.3,0-.5,0-.1,0-.3-.2-.4,0,0,0-.2,0-.3,0-.3,0-.6-.3-.8,0,0,0-.2,0-.2,0-.1,0-.3-.2-.4,0,0,0-.2,0-.3,0-.2,0-.4-.2-.5,0,0,0-.2,0-.3,0-.2,0-.4-.2-.5,0,0,0-.1,0-.2,0-.2,0-.4-.2-.5,0,0,0-.1,0-.2,0-.1,0-.3-.2-.3,0,0,0,0,0,0,0-.3-.3-.5-.4-.8,0,0,0-.1-.1-.2,0,0,0-.1-.1-.2,0-.1,0-.3-.2-.3,0,0,0-.2,0-.2,0-.1,0-.3-.2-.3,0,0,0,0,0,0,0-.4-.3-.6-.5-.8-.2-.2-.2-.4-.4-.6-.3-.4-.5-.9-.9-1.2-.4-.4-.7-.8-1-1.2-.3-.4-.4-1-.3-1.5,0,0,.2-.2.2-.3,0-.4.4-.6.6-.9,0,0,.1,0,.2,0,0,0,.2,0,.2,0,.4-.4,1-.1,1.4-.2.2.3.5.2.7.5,0,.2.3.3.4.4,0,0,0,0,0,.1,0,.3.3.5.5.7.2.2.3.5.6.7,0,0,0,0,0,.1,0,.3.3.4.4.6,0,0,.1.2.2.3,0,.1.2.3.3.4.2.3.3.7.6.9.2.2.2.3.3.5.3.1.2.6.5.8.2.1.2.4.3.6,0,.1,0,.3.2.4,0,0,0,.2,0,.3,0,.1,0,.3.2.3,0,0,0,.1,0,.2,0,.2,0,.3.2.4,0,0,0,.2,0,.3,0,.1,0,.3.2.3,0,0,0,.2,0,.3,0,.2,0,.4.2.5,0,0,0,.1,0,.2,0,.1,0,.3.2.4,0,0,0,0,0,0,0,.4.3.8.3,1.2,0,.2,0,.3.2.4,0,0,0,.2,0,.3,0,.2,0,.5.2.7,0,0,0,.2,0,.3,0,.2,0,.5.2.7,0,0,0,.2,0,.3,0,.2,0,.5,0,.6.3.3.2.7.3,1.1,0,0,0,.1,0,.2.3.4.2.8.3,1.3,0,.1,0,.3.1.4,0,0,0,.2,0,.3,0,.3,0,.6,0,.8,0,.2,0,.5.2.6,0,0,0,.2,0,.3,0,.6,0,1.1,0,1.7,0,.2,0,.4.2.5,0,0,0,.1,0,.2,0,.4,0,.9,0,1.3,0,0,0,.1,0,.2-.3.3-.2.6-.2,1,0,.1,0,.3,0,.4,0,.1,0,.3-.2.4,0,0,0,0,0,0,0,.3-.2.5-.3.7-.2.4-.4.8-.8,1.1-.2.2-.4.5-.6.6,0,0-.2.1-.2.2,0,0-.2.1-.3.2,0,0-.1,0-.2.1-.1,0-.3,0-.4.2,0,0-.1,0-.2,0-.3,0-.6,0-.7.3-.2,0-.5,0-.7,0-.2,0-.4,0-.6-.2-.1-.1-.4,0-.6-.1-.2,0-.4,0-.4-.2,0,0,0,0-.1,0-.4,0-.7-.3-1-.5-.2-.1-.4-.2-.5-.4-.1-.2-.3-.3-.4-.4-.3-.3-.4-.7-.8-1,0,0,0-.1,0-.2,0-.1-.1-.2-.2-.3,0,0,0-.1,0-.2,0-.1,0-.3-.2-.3,0,0,0-.2,0-.3,0-.2,0-.5-.2-.6,0,0,0-.2,0-.3,0-.2,0-.5,0-.6-.3-.3-.2-.6-.2-1,0-.1,0-.3-.2-.4,0,0,0-.1,0-.2,0-.2,0-.4,0-.6,0,0,0-.2,0-.2-.2-.1-.2-.3-.2-.5,0-.2,0-.5-.2-.7,0,0,0-.3,0-.5,0-.2,0-.4-.2-.6,0,0,0-.1,0-.2,0-.3,0-.5-.2-.7,0,0,0-.2,0-.3,0-.2,0-.4-.2-.5,0,0,0-.2,0-.3,0-.2,0-.4-.2-.6,0,0,0-.2,0-.3,0-.2-.1-.3-.2-.5,0,0,0-.2,0-.3,0-.2,0-.3-.2-.4,0,0,0-.2,0-.3,0-.2,0-.4-.2-.5,0,0,0,0,0,0,0-.4-.3-.7-.3-1.1,0,0,0-.2-.1-.2,0,0-.1-.1-.1-.2,0-.1,0-.3-.2-.4,0,0,0-.2,0-.3,0-.2-.1-.3-.2-.5,0,0,0,0,0,0-.1-.3-.2-.6-.3-.9,0-.1-.2-.2-.2-.4,0-.1,0-.3-.2-.4,0,0,0,0,0-.1,0-.2,0-.4-.2-.5,0,0,0-.1,0-.2,0-.1,0-.3-.2-.3,0,0,0,0,0,0,0-.3-.3-.5-.4-.7,0-.2-.2-.5-.4-.6,0,0,0,0,0,0,0-.3-.3-.5-.4-.8,0-.2-.3-.4-.4-.5,0,0,0,0-.1-.1-.2-.4-.4-.7-.8-1,0,0,0,0,0,0,0-.3-.4-.5-.5-.7-.2-.3-.5-.5-.6-.7,0-.2-.3-.3-.4-.4,0,0,0,0,0,0,0-.4-.6-.5-.7-.9,0,0,0,0,0,0-.1,0-.3,0-.4-.2,0-.2-.2-.1-.3-.3-.2-.3-.5-.4-.7-.6,0,0-.2-.2-.3-.3-.2-.2-.3-.3-.6-.3-.1,0-.2-.2-.4-.3-.2-.2-.4-.4-.7-.5-.2,0-.3-.2-.5-.3-.1,0-.3-.1-.4-.2-.2-.3-.6-.2-.7-.5,0,0-.1,0-.2,0-.1,0-.2,0-.3-.2,0,0,0,0,0,0-.4,0-.7-.4-1.1-.4-.1,0-.2,0-.3-.1,0,0,0,0,0,0-.4-.1-.8-.2-1.2-.3,0,0-.1,0-.2,0-.3-.3-.7-.2-1.1-.3-.1,0-.3,0-.4-.1,0,0-.2,0-.3,0-.5,0-1.1,0-1.6,0-.1,0-.3,0-.4-.1,0,0-.2,0-.3,0-.4,0-.8,0-1.2,0-.1,0-.2,0-.4.1,0,0-.2,0-.3,0-.5,0-1,0-1.5,0-.2,0-.3,0-.4.2,0,0-.2,0-.3,0-.2,0-.5,0-.7,0-.2,0-.4,0-.5.2,0,0-.2,0-.3,0-.2,0-.4,0-.6.2,0,0-.2,0-.3,0-.2,0-.4,0-.5.2,0,0-.1,0-.2,0-.2,0-.5,0-.7.3,0,0-.1,0-.2,0-.2,0-.4,0-.6.2,0,0-.1,0-.2,0-.1,0-.2,0-.3.2,0,0-.2,0-.2,0-.1,0-.3,0-.3.2,0,0,0,0,0,0-.3,0-.5.2-.8.3-.3.1-.6.3-.8.5-.2.1-.4.4-.7.4-.1,0-.2.2-.3.2-.1,0-.2,0-.3.2-.1.2-.4.2-.6.4-.3.2-.7.4-.9.7,0,0,0,0,0,0-.5.1-.7.5-1.1.8-.2.1-.4.2-.6.4-.3.3-.6.4-.8.7-.2,0-.3.3-.5.4,0,0-.2.2-.2.3-.1.2-.4.3-.6.4-.2.2-.4.4-.5.6-.2.3-.5.5-.7.8,0,0-.2.2-.2.3,0,.1-.2.3-.3.4-.1.1-.3.3-.4.4-.1.1-.2.2-.3.3-.3.3-.5.6-.8.9,0,0,0,0,0,.1,0,.3-.3.4-.5.6-.1.2-.4.3-.4.6,0,0,0,.1-.1.2-.2,0-.3.3-.4.5-.2.2-.3.3-.3.6,0,0-.2.1-.2.2-.1.2-.3.4-.3.6,0,0-.2.1-.2.2-.3.3-.4.8-.7,1.1-.2.2-.3.5-.4.8,0,.2-.3.2-.3.4,0,.1,0,.3-.2.4-.1,0-.2.2-.2.4-.1.3-.4.6-.4.9,0,0,0,.1,0,.2,0,0-.1.2-.2.3,0,0,0,.2,0,.2-.2,0-.2.3-.2.5,0,.1,0,.3-.2.4,0,0,0,0,0,.1,0,.2,0,.4-.2.5,0,0,0,.2,0,.3,0,.2,0,.4-.2.4,0,0,0,.1,0,.2,0,.2,0,.3-.2.4,0,0,0,.3,0,.5,0,.1,0,.2-.1.3,0,0,0,.3-.1.4,0,.1,0,.3-.2.4,0,0,0,.2,0,.3,0,.3,0,.6-.2.9,0,.1,0,.3,0,.5,0,.2,0,.4-.2.6-.1.2-.1.5-.1.7,0,.3,0,.6-.2.9,0,0,0,.2,0,.3,0,.9,0,1.8,0,2.8,0,.2,0,.4.2.5,0,0,0,0,0,.1,0,.2.2.3.4.4,0,0,.2.1.3.2.1,0,.3-.1.4-.2.1,0,.2-.1.3-.2.3-.3.4-.7.7-1,0,0,0-.1,0-.2,0-.1,0-.3.2-.3,0,0,0,0,0-.1,0-.2,0-.4.2-.5,0,0,0-.1,0-.2,0-.1,0-.3.2-.3,0,0,0,0,0,0,0-.4.3-.6.4-.9.1-.3.3-.6.3-.9.3-.1.2-.5.3-.6.2-.2.2-.4.2-.7,0,0,0-.1.1-.2,0,0,0-.1.1-.2,0-.2,0-.4.2-.5,0,0,0-.2,0-.3,0-.1,0-.2.1-.3,0,0,0-.3.1-.4,0-.1,0-.3.2-.4,0,0,0,0,0,0,0-.3.2-.6.3-.8,0-.2,0-.4.2-.5,0,0,0-.1,0-.2,0-.1,0-.3.2-.3,0,0,0,0,0,0,0-.3.3-.6.3-.9,0-.2,0-.4.2-.5,0,0,0-.1,0-.2,0-.1,0-.3.2-.3,0,0,0,0,0,0,0-.3.3-.5.3-.8,0,0,0-.2,0-.2.2,0,.2-.2.2-.4,0,0,0-.1.1-.2,0,0,0,0,0,0,0-.3.2-.5.3-.6.2-.2.2-.6.5-.7,0,0,0,0,0-.1,0-.3.3-.5.5-.8.2-.3.3-.6.6-.8,0,0,0,0,0-.1,0-.3.3-.4.4-.7.1-.2.4-.4.4-.6,0,0,.2-.2.2-.3.2-.3.5-.6.7-.8,0,0,0,0,.1-.1.1-.3.2-.3.5-.6.1-.1.2-.3.4-.4.2-.2.5-.5.7-.7.1-.1.2-.2.3-.3.3-.3.5-.5.8-.8.1-.1.2-.3.4-.4,0,0,0,0,.1-.1.2-.1.4-.2.6-.4.2-.3.6-.4.7-.7,0,0,0,0,.1,0,.3,0,.5-.2.7-.5,0,0,0,0,0,0,.3-.1.5-.2.8-.4.2-.2.4-.2.6-.4,0,0,.1,0,.2,0,.1,0,.3,0,.3-.2,0,0,.2,0,.2-.1.1,0,.3,0,.3-.2,0,0,.2,0,.2,0,.1,0,.3,0,.3-.2,0,0,0,0,0,0,.4,0,.7-.3,1.1-.3.2,0,.4,0,.5-.2,0,0,.3,0,.5,0,.1,0,.3,0,.4-.2,0,0,.1,0,.2,0,.2,0,.3,0,.5,0,.1,0,.3,0,.4-.2,0,0,.1,0,.2,0,.3,0,.7,0,1,0,.3,0,.5,0,.8-.2,0,0,.2,0,.3,0,.7,0,1.3,0,2,0,.1,0,.2,0,.3,0,.2,0,.4.1.6.2.3,0,.7,0,1,0,.2,0,.4,0,.5.2,0,0,.3,0,.5,0,.2,0,.5,0,.7.2,0,.1.4,0,.6,0,.2,0,.3,0,.4.2,0,0,0,0,.1,0,.2,0,.3,0,.5,0,.1,0,.2.2.4.2.4,0,.7.3,1,.5,0,0,.2,0,.3.1.1,0,.3,0,.3.2,0,0,.1,0,.2,0,.1,0,.3,0,.3.2,0,0,0,0,0,0,.5,0,.7.5,1.2.6.1,0,.2.2.4.3.1,0,.2.2.4.2.2,0,.1.4.4.3.4.5,1,.8,1.4,1.3.3.4.7.7.9,1.1.1.2.3.3.4.4,0,0,0,0,0,.1,0,.3.3.5.5.7.3.3.4.6.7,1,0,.1.2.2.3.4,0,.1,0,.3.2.4,0,0,0,0,0,.1,0,.2,0,.3.2.4.1,0,0,.3.3.4,0,0,0,.1,0,.2,0,.1,0,.3.2.3,0,0,0,0,0,.1,0,.2,0,.4.2.5,0,0,0,.1,0,.2,0,.1,0,.3.2.4,0,0,0,.1,0,.2,0,.2,0,.5.3.7,0,0,0,0,0,.2,0,0,0,.2,0,.2.3.2.2.5.3.8.1.2.2.4.2.7.3.2.2.5.3.7,0,0,0,0,0,0,.3.2.2.6.3.8.2.3.2.5.3.8,0,.2.2.3.2.4,0,.2,0,.4,0,.5.3.2.2.6.2.8,0,.2,0,.3.2.4,0,0,0,.2,0,.3,0,.2,0,.4.2.5,0,0,0,.2,0,.3,0,.3,0,.5.2.7,0,0,0,.2,0,.3,0,.2,0,.4.2.6,0,0,0,0,0,0,0,.5.4.9.3,1.4,0,.2,0,.4.2.5,0,0,0,.2,0,.3,0,.2,0,.4.2.6,0,0,0,.2,0,.3,0,.2,0,.4.2.5,0,0,0,0,0,0,0,.4.2.7.3,1.1,0,.1,0,.3.2.3,0,0,0,0,0,0,0,.3.1.6.3.9.1.1.1.3.3.5.2.2.2.5.3.8,0,.2.2.4.4.6.1,0,.1.2.2.3.1.2.2.4.4.5.1.2.3.4.5.5.2.1.2.3.4.4.1,0,.2.2.4.3.2.2.5.4.8.5.3.4.8.2,1.1.5,0,0,.3,0,.4,0,1.1,0,2.3,0,3.4,0,.2,0,.3,0,.4-.2,0,0,.1,0,.2,0,.3,0,.7,0,1,0,.4,0,.6.3,1,.3.2.3.6.5.7,1,.3.2.2.5.2.8,0,.2,0,.4-.2.6-.1.2-.1.4-.3.6-.2.1-.3.3-.5.4-.3.3-.4.2-.7.3-.2,0-.4,0-.6.2,0,0-.1,0-.2,0-.3,0-.6,0-.9,0-.2,0-.4,0-.5.2,0,0-.2,0-.3,0-.7,0-1.5,0-2.2,0-.1,0-.3,0-.4-.1,0,0-.2,0-.3,0-.3,0-.6,0-.8,0-.2,0-.4,0-.6-.2,0,0-.3,0-.4,0-.1,0-.3,0-.4-.2,0,0,0,0-.1,0-.3,0-.6-.2-.9-.4-.2-.1-.5-.2-.7-.4,0,0,0,0,0,0-.4,0-.5-.4-.8-.5-.5-.3-.8-.8-1.2-1.1-.3-.2-.4-.6-.7-.8-.3-.2-.3-.6-.6-.8-.3-.3-.3-.7-.5-.9-.2-.2-.2-.3-.3-.5-.4-.1-.1-.6-.5-.7,0,0,0,0,0-.1,0-.2,0-.5-.3-.6,0,0,0-.2,0-.2,0,0,0-.2-.1-.3-.1,0-.1-.2-.1-.3,0-.1,0-.3-.2-.3,0,0,0-.2,0-.3,0-.2,0-.5-.2-.6,0,0,0-.2,0-.3,0-.2,0-.4-.2-.5,0,0,0-.2,0-.3,0-.2,0-.4-.2-.5,0,0,0,0,0,0,0-.5-.4-.9-.3-1.4,0-.2,0-.3-.2-.4,0,0,0-.2,0-.3,0-.2,0-.5-.2-.6,0,0,0-.1,0-.2,0-.3,0-.6-.3-.9,0,0,0-.2,0-.2,0-.2,0-.5-.2-.6,0,0,0-.1,0-.2,0-.2,0-.5-.2-.7,0,0,0-.3,0-.4,0-.2,0-.4-.2-.6,0,0,0-.3-.1-.5,0-.2,0-.3-.2-.4,0,0,0-.2,0-.3,0-.2,0-.4-.2-.6,0,0,0,0,0,0,0-.4-.2-.7-.3-1.1,0-.1,0-.3-.2-.3,0,0,0-.2,0-.2,0-.2,0-.5-.2-.6,0,0,0-.1,0-.2,0-.2,0-.3-.2-.4,0,0,0-.1,0-.2,0-.2,0-.5-.3-.6,0,0,0-.2,0-.2,0-.1-.1-.2-.2-.3,0,0,0-.1,0-.2,0-.1,0-.3-.2-.4,0,0,0,0,0,0,0-.4-.3-.6-.5-.8,0,0,0-.1,0-.2,0-.1,0-.3-.2-.3,0,0,0,0,0-.1,0-.3-.3-.5-.4-.7-.1-.2-.3-.3-.4-.6,0-.2-.2-.4-.3-.4-.3-.2-.4-.5-.7-.7-.3-.2-.4-.5-.6-.7-.1-.1-.3-.3-.4-.4-.3-.2-.5-.5-.9-.6,0,0-.2-.2-.3-.3-.1-.1-.3-.2-.5-.3-.2-.1-.3-.3-.6-.3,0-.3-.3-.2-.5-.3,0-.4-.6-.1-.7-.5-.4,0-.6-.3-1-.3-.2,0-.3,0-.4-.2-.2-.1-.4-.1-.7-.1-.2,0-.4,0-.5-.1,0,0-.2-.1-.4-.1-1.4,0-2.8,0-4.1,0-.1,0-.3,0-.3.2,0,0-.1,0-.2,0-.2,0-.3,0-.5,0-.1,0-.3,0-.4.2,0,0-.2,0-.3,0-.2,0-.4,0-.6.2,0,0,0,0-.1,0-.2,0-.5,0-.7.3,0,0-.3,0-.3,0-.2.2-.4.2-.6.3-.3.3-.8.3-1,.7,0,0,0,0-.1,0-.3,0-.5.3-.7.5,0,0,0,0,0,0-.3,0-.5.3-.7.5-.3.2-.5.6-1,.7-.1,0-.3.2-.4.3-.2.3-.5.5-.7.7-.2.2-.5.5-.7.8-.1.1-.2.3-.3.3-.2,0-.2.2-.3.4,0,.2-.3,0-.3.3-.3.2-.4.5-.6.7,0,.1-.2.2-.2.3,0,.2-.3.2-.3.4-.3,0-.2.4-.4.5,0,.3-.4.5-.5.8-.1.3-.4.5-.5.8,0,.2-.2.3-.3.5,0,.1-.1.2-.2.4,0,0-.2.2-.2.3,0,.3-.3.5-.4.8,0,.2-.2.3-.2.4,0,.1,0,.4-.2.4,0,0,0,.1,0,.2,0,.1,0,.3-.2.4,0,0,0,0,0,0,0,.4-.4.6-.4,1,0,.1,0,.2-.2.3,0,0,0,0,0,0,0,.2-.1.4-.2.6-.2.3-.2.7-.4,1-.1.3-.3.6-.4.9,0,.1-.1.3-.2.4,0,.2,0,.4-.2.4,0,0,0,0,0,0,0,.4-.3.6-.3,1,0,.1,0,.2-.1.3,0,0,0,.1,0,.2,0,.2-.1.3-.2.5-.2.3-.3.6-.4.9,0,.2,0,.4-.2.4,0,0,0,0,0,.1,0,.2,0,.4-.2.4,0,0,0,0,0,0,0,.3-.3.5-.3.8,0,0,0,.1-.1.2,0,0,0,0,0,0,0,.3-.3.5-.4.8,0,.2-.2.4-.3.5-.2.2-.5.4-.5.8,0,.1-.2.2-.3.3-.1.2-.3.4-.5.5-.2.1-.4.2-.5.4-.1.1-.3.2-.4.3-.2,0-.3,0-.4.2,0,0-.2,0-.3,0-.2,0-.4,0-.6.2,0,0-.1,0-.2,0-.5,0-1,0-1.5,0-.1,0-.2,0-.3-.1,0,0-.2,0-.2,0-.2,0-.5,0-.7-.3,0,0-.1,0-.2,0-.1,0-.2,0-.2-.2,0,0,0,0,0,0-.5-.1-.7-.5-1-.8-.3-.2-.3-.6-.5-.8-.2-.1-.2-.3-.3-.5,0-.2-.3-.4-.2-.6-.4-.2-.2-.6-.3-.9,0-.3,0-.6-.2-.9-.1-.2,0-.6,0-.8,0-.2.2-.5.2-.7,0-.7,0-1.4,0-2.1,0-.1,0-.3.2-.4,0,0,0-.1,0-.2,0-.2,0-.5,0-.7,0-.2,0-.4.2-.5,0,0,0-.1,0-.2,0-.3,0-.5,0-.8,0,0,0-.2,0-.2.3-.2.2-.5.2-.8,0-.2,0-.4.2-.4,0,0,0,0,0,0,0-.5.3-.9.4-1.3,0,0,0-.2,0-.2.3-.2.2-.5.3-.7,0-.1.2-.2.2-.4,0-.1,0-.3,0-.4,0-.1.2-.2.2-.3,0-.2,0-.4.2-.5,0,0,0-.1,0-.2,0-.1,0-.2.2-.3,0,0,0,0,0,0,0-.4.3-.6.4-.9,0-.2.2-.5.4-.7,0-.1.1-.3.2-.4,0-.1.2-.2.2-.4,0-.1,0-.3.2-.4,0,0,0,0,0,0,.1-.3.2-.6.4-.8.3-.3.3-.8.7-1,0,0,0,0,0-.1,0-.3.3-.5.5-.7,0,0,0,0,0,0,0-.3.4-.5.4-.8,0-.2.3-.2.3-.4.3-.2.4-.5.6-.8,0-.1.2-.2.3-.3.1-.2.2-.3.3-.5,0-.1.2-.3.3-.4.3-.2.5-.5.6-.7.3-.4.6-.7.9-1,.3-.5.8-.7,1-1.2,0-.1.3-.1.3-.3.3-.2.5-.6.8-.8.3-.2.5-.4.7-.7.2-.2.4-.5.7-.7.1-.1.3-.3.5-.4.2,0,.4-.3.5-.4.3-.2.5-.5.8-.7.3-.3.8-.6,1.1-.9.1-.1.3-.2.4-.3,0,0,.1-.1.2-.1.3,0,.4-.3.6-.4,0,0,.1-.1.2-.2.2,0,.4-.3.6-.4,0,0,0,0,0,0,.3,0,.4-.2.6-.3.2,0,.2-.3.5-.3.2,0,.3-.2.5-.3.2,0,.4-.2.5-.3.1-.2.3-.2.5-.3.2,0,.1-.3.4-.3.2,0,.3,0,.4-.2,0,0,.1,0,.2,0,.2,0,.3-.2.5-.3.2,0,.4,0,.5-.2,0,0,.1,0,.2,0,.2,0,.4,0,.6-.2,0,0,.1,0,.2,0,.1,0,.3,0,.4-.2,0,0,.1,0,.2,0,.2,0,.5,0,.6-.3,0,0,0,0,.2,0,.2,0,.5,0,.6-.2,0,0,.2,0,.3,0,.2,0,.4,0,.6-.2,0,0,.2,0,.4,0,.2,0,.4,0,.5-.2,0,0,.2,0,.3,0,.3,0,.6,0,.9-.1.6-.3,1.2-.2,1.9-.3.1,0,.3,0,.4-.1,0,0,.2,0,.3,0,1.2,0,2.5,0,3.7,0,.1,0,.2,0,.3.1,0,0,.1,0,.2,0,.3,0,.7,0,1,0,.3,0,.5,0,.8.2.2.1.5,0,.7.1.1,0,.3,0,.3.1,0,0,.2,0,.2,0,.2,0,.3,0,.5,0,0,0,.2,0,.2,0,0,.2.3.2.4.2.2,0,.4,0,.5.2,0,0,0,0,.1,0,.2,0,.4,0,.5.2,0,0,.1,0,.2,0,.2,0,.4,0,.6.2,0,0,.2,0,.3,0,0,0,.2,0,.2,0,0,.2.2.2.4.2,0,0,.1,0,.2.1,0,0,.2.1.2.2.1,0,.3,0,.3.2,0,0,0,0,0,0,.4,0,.5.3.8.5,0,0,0,0,0,0,.5,0,.7.6,1.2.7.2.3.5.4.7.7,0,0,0,0,0,0,.4,0,.6.4.9.7.2.2.4.5.7.6,0,.2.2.2.3.3.3.4.7.6.9,1,.3.1.4.5.7.6,0,0,0,0,0,0,.2.4.5.7.8,1,.1.1.2.3.3.4.1.2.3.4.5.5,0,0,0,.1,0,.2.1.2.3.5.5.6,0,0,0,0,0,.2,0,.3.3.5.5.7,0,0,0,0,0,0,0,.3.3.6.5.8,0,0,0,0,0,.1,0,.3.3.5.5.7,0,0,0,0,0,.1,0,.2,0,.4.2.5,0,0,0,.1,0,.2,0,.1,0,.3.2.3,0,0,0,0,0,0,0,.3.3.5.3.8,0,.1.2.3.2.4,0,.1,0,.3.2.4,0,0,0,0,0,0,.1.3.2.6.3.9,0,0,0,.1.1.2,0,0,.1.1.1.2,0,.1,0,.3.2.4,0,0,0,.2,0,.3,0,.2,0,.4.2.5,0,0,0,.2,0,.3,0,.1,0,.3.2.3,0,0,0,.2,0,.2,0,.2,0,.4.2.6,0,0,0,.2,0,.3,0,.1,0,.3.2.3,0,0,0,0,0,0,0,.4.3.7.3,1.1,0,.2,0,.4.2.5,0,0,0,.2,0,.3,0,.1,0,.3.2.3,0,0,0,.2,0,.2,0,.2,0,.5.2.6,0,0,0,.1,0,.2,0,.2,0,.5.2.6,0,0,0,.3,0,.4,0,.1,0,.3.2.4,0,0,0,.2,0,.3,0,.3,0,.6.2.8,0,0,0,.2,0,.3,0,.2,0,.4.2.6,0,0,0,.2,0,.3,0,.3,0,.6.2.8,0,0,0,.2,0,.3,0,.3,0,.6.2.8,0,0,0,.1,0,.2,0,.2,0,.4,0,.6,0,0,0,.2,0,.2.3.2.2.5.2.7,0,.2,0,.4.2.5,0,0,0,.1,0,.2,0,.1,0,.3.2.4,0,0,0,0,0,0,.4.8.7.8,1.3.7"/>
    <path class="cls-11" d="M65.4,56.1c-.1.1-.3.2-.4.3,0,0-.2,0-.3,0-.1,0-.3,0-.3.2,0,0-.2,0-.2,0-1.1,0-2.1,0-3.2,0,0,0-.1,0-.2,0-.3-.4-.8-.2-1.1-.3-.1,0-.2,0-.4,0,0,0-.2,0-.2,0-.2-.2-.4-.2-.7-.2-.2,0-.5,0-.6-.2,0,0,0,0,0,0-.5,0-.8-.3-1.3-.4,0,0-.2,0-.3-.1,0,0-.1,0-.2-.1-.2,0-.4,0-.4-.2,0,0,0,0,0,0-.3,0-.5-.2-.7-.3-.3-.2-.7-.3-1-.7,0,0,0,0-.2-.1-.3-.1-.5-.3-.7-.5-.2-.2-.5-.4-.7-.6-.3-.2-.4-.5-.7-.7-.3-.2-.5-.5-.7-.7-.2-.1-.4-.3-.4-.6,0-.2-.1-.4-.3-.4-.3-.2-.3-.5-.5-.7-.1,0-.2-.2-.3-.3,0-.1-.2-.2-.2-.4,0,0,0,0,0-.1,0-.2,0-.3-.2-.4-.1,0,0-.3-.2-.4,0,0,0-.1,0-.2,0-.1,0-.3-.2-.3,0,0,0-.1,0-.2,0-.1,0-.3-.2-.3,0,0,0-.1,0-.2,0-.2-.1-.4-.2-.6-.2-.3-.3-.6-.4-.8,0-.1,0-.3-.2-.3,0,0,0-.1,0-.2,0-.2,0-.5-.2-.7,0,0,0-.2,0-.3,0-.2,0-.4-.2-.5,0,0,0-.1,0-.2,0-.2,0-.4-.2-.5,0,0,0-.2,0-.3,0-.2,0-.4-.2-.5,0,0,0-.1,0-.2,0-.2,0-.5-.3-.7,0,0,0-.2,0-.3,0-.2,0-.4-.2-.6,0,0,0-.2,0-.3,0-.2,0-.4-.2-.5,0,0,0-.2,0-.3,0-.2,0-.4-.2-.6,0,0,0-.2,0-.3,0-.2,0-.4-.2-.5,0,0,0-.2,0-.3,0-.2,0-.4-.2-.6,0,0,0-.2,0-.3,0-.2,0-.4-.2-.5,0,0,0,0,0,0,0-.5-.3-.8-.3-1.2,0-.1,0-.3-.2-.4,0,0,0-.1,0-.2,0-.2,0-.5-.2-.6,0,0,0-.1,0-.2,0-.1,0-.3-.2-.4,0,0,0,0,0-.1,0-.2,0-.4-.2-.5,0,0,0-.1,0-.2,0-.2,0-.3-.2-.4,0,0,0,0,0,0,0-.4-.2-.6-.4-.9-.1-.2-.3-.3-.3-.6-.3-.3-.3-.8-.7-1,0-.2-.2-.4-.3-.6-.2-.2-.3-.4-.5-.5-.1-.1-.2-.3-.4-.5-.1-.1-.2-.2-.3-.3-.2-.2-.4-.4-.6-.5-.3-.1-.6-.4-.9-.5-.4-.1-.7-.5-1.1-.4,0,0,0,0-.1,0-.2-.3-.5-.2-.7-.2-.2,0-.3,0-.4-.2,0,0-.2,0-.3,0-.9,0-1.8,0-2.7,0-.1,0-.3,0-.3.2,0,0-.2,0-.2,0-.2,0-.3,0-.5,0-.1,0-.2,0-.3.1,0,0-.1,0-.2,0-.2,0-.4,0-.4.2,0,0,0,0,0,0-.3,0-.6.1-.8.3-.3.3-.7.4-1,.7-.2.2-.5.4-.8.7-.2.2-.5.5-.7.7-.2.2-.4.5-.6.7-.3.4-.6.8-.8,1.2-.3.1-.2.6-.5.8,0,0,0,.1,0,.2,0,.1,0,.2-.2.3,0,0,0,0,0,0-.1.3-.2.6-.4,1,0,.1,0,.3-.2.4,0,0,0,.1,0,.2,0,.1,0,.3-.2.4,0,0,0,0,0,0,0,.5-.4.8-.3,1.3,0,.1,0,.2-.1.3,0,0,0,.2-.1.3,0,.2,0,.4-.2.6,0,0,0,.3,0,.5,0,.2,0,.4-.2.5,0,0,0,0,0,0,0,.4-.3.8-.4,1.2,0,.2,0,.4-.2.5,0,0,0,0,0,0,0,.2,0,.5-.2.7-.2.2-.2.4-.2.6,0,.2-.3.2-.3.4,0,.1,0,.3-.1.4,0,0,0,0,0,0,0,.3-.2.5-.3.8-.2.3-.4.7-.5,1-.1.3-.4.5-.4.8,0,.2-.2.3-.3.5,0,.2-.2.3-.4.4,0,0,0,0-.1.1-.1.4-.5.7-.8,1,0,0,0,0,0,.1,0,.3-.3.5-.5.7-.2.2-.4.5-.7.7-.2.2-.5.4-.8.6-.1.1-.2.3-.4.4,0,0,0,0-.1.1-.3,0-.5.3-.7.5,0,0,0,0-.1,0-.3,0-.5.3-.7.5,0,0,0,0,0,0-.3,0-.6.3-.8.5,0,0-.1,0-.2,0-.1,0-.3,0-.3.2,0,0,0,0-.1,0-.2,0-.4,0-.5.2,0,0-.2,0-.3,0-.2,0-.4,0-.5.2,0,0-.1,0-.2,0-.2,0-.4,0-.4.2,0,0-.2,0-.3,0-.2,0-.5,0-.6.2,0,0-.2,0-.3,0-.3,0-.6,0-.8.2,0,0-.2,0-.2,0-.3,0-.5,0-.8,0,0,0-.2,0-.2,0-.2.3-.5.2-.8.2-.4,0-.8,0-1.2,0-.6,0-.9-.3-1.3-.7-.2-.2-.2-.4-.3-.5-.3-.3-.2-.7-.2-1,0-.2,0-.3.2-.4,0,0,0,0,0-.1.1-.4.4-.8.8-1,.1-.3.4-.2.7-.3.2,0,.5,0,.7,0,.2,0,.3,0,.4-.2,0,0,.2,0,.3,0,.2,0,.4,0,.6,0,.2,0,.4,0,.5-.2,0,0,.2,0,.3,0,.3,0,.5,0,.7-.2,0,0,.1,0,.2,0,.2,0,.4,0,.5-.2,0,0,0,0,0,0,.3,0,.6-.1.9-.3.2,0,.3-.1.5-.3.1-.1.3-.1.5-.2.2-.1.4-.4.7-.4.2,0,.2-.2.4-.3.1,0,.2-.3.4-.4,0,0,0,0,.1,0,.4-.1.6-.5.9-.7.1-.1.2-.3.4-.4.2-.2.4-.4.5-.7,0-.1.2-.3.3-.4.2-.2.3-.4.4-.6,0-.1,0-.3.2-.3,0,0,0,0,0,0,0-.4.3-.6.5-.9.2-.3.2-.6.4-.9,0,0,.1-.2.2-.2,0-.1.1-.3.1-.4,0-.2.2-.2.3-.4,0-.2,0-.3.2-.5.1,0,.1-.3.1-.4,0-.2,0-.3.2-.4,0,0,0-.2,0-.3,0-.2,0-.4.2-.5,0,0,0-.3,0-.4,0-.2,0-.4.2-.4,0,0,0,0,0-.1,0-.5.4-.9.3-1.4,0-.1,0-.2.2-.3,0,0,0-.3.1-.4,0-.2,0-.4.2-.5,0,0,0-.3,0-.4,0-.2,0-.3.2-.4,0,0,0-.2,0-.3,0-.2,0-.4.2-.5,0,0,0,0,0,0,0-.4.3-.6.3-.9,0-.2,0-.4.2-.4,0,0,0-.1,0-.2,0-.1,0-.3.2-.3,0,0,0-.1.1-.2,0-.1,0-.3.2-.4,0,0,0-.1,0-.2,0-.1,0-.3.2-.3,0,0,0,0,0,0,0-.4.3-.6.5-.8,0,0,0,0,0,0,0-.2.2-.4.3-.6.1-.1.2-.3.3-.5,0-.2.2-.3.3-.4.4-.3.6-.7.9-1,.4-.4.8-.7,1.1-1.1.2-.2.6-.4.7-.7,0,0,0,0,0,0,.2,0,.3,0,.4-.2,0-.1.3,0,.4-.3,0-.1.4,0,.5-.3.3,0,.5-.3.8-.4.1,0,.3,0,.3-.2,0,0,.1,0,.2,0,.1,0,.3,0,.4-.2,0,0,.2,0,.3,0,.2,0,.4,0,.5-.2,0,0,.1,0,.2,0,.3,0,.7,0,.9-.3,0,0,.2,0,.3,0,1.5-.1,2.9,0,4.4,0,.1,0,.3,0,.4.1.2.1.4.1.6.1.2,0,.4,0,.6.2,0,0,.2,0,.4,0,.1,0,.3,0,.4.2,0,0,0,0,0,0,.4,0,.6.4,1,.3.1,0,.2,0,.3.2,0,.1.2.2.4.2.3.1.5.3.8.4.1,0,.3.2.4.3.5.5,1,.9,1.5,1.4.3.3.6.6.8.9.1.2.3.3.4.5.2.3.4.6.7.9,0,0,0,0,0,.2,0,.2,0,.3.2.4,0,0,0,0,0,.1,0,.2,0,.3.2.4,0,0,0,.1,0,.2.2.3.3.7.5.9,0,0,0,.2,0,.3,0,.1.2.3.2.4,0,.2,0,.3.2.4,0,0,0,.1,0,.2,0,0,0,.2,0,.2.4.2.1.7.5,1,0,0,0,.2,0,.2,0,0,0,.2,0,.2.3.1.2.4.3.7,0,.1.1.2.2.3,0,0,0,.2,0,.3,0,.2,0,.5.2.6,0,0,0,.2,0,.2,0,.2,0,.4.2.6,0,0,0,.2,0,.3,0,.2,0,.4.2.5,0,0,0,.1,0,.2,0,.2,0,.5.2.6,0,0,0,0,0,.1,0,.3,0,.5.3.7,0,0,0,.2,0,.2,0,.1,0,.3.1.4.2.2.2.4.2.6,0,.1,0,.3.2.4,0,0,0,.1,0,.2,0,.2,0,.5.2.7,0,0,0,.1,0,.2,0,.2,0,.5.2.7,0,0,0,.2,0,.2,0,.1,0,.2,0,.3.1.2.2.4.2.6,0,0,0,0,0,0,.4.2.1.8.5,1,0,0,0,.2,0,.3.2.3.2.6.3.9.2.2.1.6.4.8,0,0,0,.3,0,.4.3.2.3.6.5.9,0,.1.3.1.3.3,0,.1,0,.3.2.4,0,0,0,0,0,.1,0,.3.3.5.5.7,0,0,0,0,0,0,0,.3.3.5.5.7.2.3.4.5.7.8.2.2.5.4.7.6.2.1.3.3.5.4,0,0,.1.1.2.2.3,0,.4.3.6.5,0,0,0,0,0,0,.3.1.6.2.8.3.1,0,.3.2.4.2.2,0,.4,0,.5,0,.2.2.5.2.8.3.2,0,.4.2.5.2.3,0,.6,0,1,0,.2,0,.5,0,.7.1.3.1.7,0,1.1,0,.2,0,.4,0,.6,0,0,0,.2,0,.3,0,.2-.2.4-.1.6,0,0,0,.1,0,.2,0,.1,0,.3,0,.4,0,.2.2.4.4.6.6.2.2.2.4.3.6,0,.1,0,.3.1.3,0,0,0,.3,0,.3-.2.2-.1.4-.2.6,0,.1,0,.3-.2.4,0,0-.1.3-.2.4,0,0,0,0,0,0"/>
    <path class="cls-11" d="M35,35.8c-.2,0-.3,0-.5,0-.4,0-.7.2-.9.5-.1.1-.3.2-.4.4-.2.2-.4.4-.4.8,0,.1,0,.3-.1.4-.1,0,0,.3-.1.5,0,.2,0,.5-.2.6,0,0,0,0,0,.1,0,.3,0,.6-.3.8,0,.5-.4.9-.4,1.4,0,0,0,0,0,.1-.3.1-.2.4-.2.6,0,.1,0,.3-.2.3,0,0,0,0,0,0,0,.4-.3.6-.3.9,0,0,0,.2-.1.3,0,0-.1.2-.1.3,0,.2,0,.4-.2.5,0,0,0,.1,0,.2,0,.1,0,.3-.2.3,0,0,0,0,0,.1,0,.2,0,.4-.2.5,0,0,0,.1,0,.2,0,.1,0,.2-.2.3-.1,0,0,.3-.3.4,0,.3-.3.5-.4.8,0,0,0,.1-.1.2,0,0,0,0,0,.1,0,.3-.3.5-.5.8,0,0,0,0,0,0,0,.4-.4.6-.5.9-.2.4-.5.7-.8,1,0,0,0,0,0,0,0,.3-.4.5-.6.8-.2.3-.6.5-.7.9,0,.1-.2.2-.3.3-.2.2-.5.4-.7.7-.3.3-.6.6-.9.9-.2.2-.5.5-.7.7-.2.2-.4.5-.7.7-.1.1-.3.3-.4.4,0,0-.2.2-.3.3-.4.4-.9.6-1.3,1-.2.3-.6.4-1,.7,0,0-.2.2-.3.2-.2,0-.2.3-.5.3-.2,0-.4.1-.5.3-.1.2-.4.2-.5.3-.2.2-.4.2-.6.4-.2,0-.3.3-.4.4,0,0-.1,0-.2,0-.1,0-.3,0-.3.2,0,0,0,0,0,0-.5,0-.8.5-1.2.6-.1.3-.3.3-.6.3-.1.3-.4.2-.7.3-.1,0-.2.2-.4.2-.1,0-.3,0-.4.2,0,0-.2,0-.3,0-.1,0-.3,0-.4.2,0,0-.2,0-.3,0-.2,0-.4,0-.5.2-.1.1-.7,0-.9,0,0,0,0,0-.1,0-.6,0-.8-.5-1.2-.8,0,0,0-.1,0-.2,0-.6,0-1.1,0-1.7,0,0,0,0,0,0,.3-.4.6-.7,1-.9.1,0,.3,0,.4-.2,0,0,.1,0,.2,0,.1,0,.3,0,.4-.2,0,0,0,0,0,0,.4,0,.7-.3,1-.4,0,0,.2,0,.2,0,0-.1.2-.1.3-.2,0,0,.2,0,.2-.1,0,0,.2,0,.3-.1,0,0,.2-.1.3-.2.3,0,.4-.4.7-.4,0,0,.2,0,.2-.1,0,0,0-.1.1-.1.3,0,.6-.3.8-.5,0,0,0,0,0,0,.3,0,.6-.2.7-.5,0,0,0,0,0,0,.4,0,.6-.4.9-.6.2-.1.4-.2.5-.4.2-.2.6-.4.8-.7,0,0,0,0,0,0,.4-.2.7-.4,1-.8.2-.2.5-.4.7-.6.1-.1.3-.3.4-.4.1-.1.2-.3.4-.4.3-.2.5-.5.7-.8.1-.1.2-.3.4-.4.2-.2.5-.4.5-.7,0-.1.3-.1.3-.3.3-.2.4-.5.6-.7,0,0,0-.1.1-.2.1-.3.3-.5.5-.7,0,0,0,0,0,0,0-.3.3-.5.5-.7,0,0,0,0,0,0,0-.4.3-.6.5-.8,0,0,0-.1,0-.2,0-.1,0-.2.2-.3,0,0,0,0,0,0,0-.3.2-.5.4-.7.2-.2.2-.6.4-.7,0,0,0-.1,0-.2,0-.1,0-.3.2-.3,0,0,0-.2.1-.2,0-.1,0-.3.2-.4,0,0,0-.2.1-.4,0-.1,0-.3.2-.4,0,0,0-.1,0-.2,0-.2,0-.4.2-.4,0-.4.3-.6.3-.9,0-.2,0-.4.2-.5,0,0,0,0,0,0,0-.2,0-.5.1-.7.2-.2.2-.4.2-.6,0-.2,0-.3.2-.4.1-.1,0-.4.1-.6,0-.2,0-.4.2-.5,0,0,0,0,0-.1,0-.4.2-.7.3-1.1,0-.3.3-.5.4-.8,0,0,.1-.2.2-.3,0-.2.2-.3.3-.5.3-.3.6-.7,1-1,.1,0,.2-.2.4-.4,0,0,0,0,.1,0,.3,0,.5-.3.8-.5,0,0,.3,0,.4,0,.1,0,.3,0,.4-.2,0,0,.1,0,.2,0,.3,0,.7,0,1,0,.2,0,.3,0,.5-.1.1,0,.4,0,.6,0,.1,0,.3.1.4.1.4,0,.7,0,1.1,0,0,0,.1,0,.2,0,.1,0,.3.1.4.2.2,0,.4,0,.5.2,0,0,0,0,.1,0,.1,0,.3,0,.4.2,0,0,0,0,0,0,.3,0,.4.2.6.3.2.1.3.3.5.4,0,0,0,0,.1,0,.3,0,.4.3.6.5,0,0,.2.2.3.2.3.4.6.8.9,1.2.2,0,.2.3.3.5,0,.1.2.2.2.3,0,0,0,.2,0,.3.2.1.2.3.3.5,0,.1.2.3.2.4,0,.1,0,.4.1.5.2.2.2.4.2.6,0,.1,0,.3.2.4,0,0,0,.2,0,.2,0,.2,0,.3,0,.5,0,0,0,.2,0,.2.3.2.2.5.2.8,0,.3,0,.5,0,.8,0,0,0,.2,0,.2.2.2.2.4.2.6,0,.5,0,1,0,1.4,0,.1,0,.3,0,.4.2.2.1.4.1.6,0,.3,0,.6,0,.9,0,.2,0,.4.2.6,0,0,0,.2,0,.3,0,.3,0,.5,0,.8,0,0,0,.2,0,.2.2.2.2.4.2.6,0,.2,0,.5.2.6,0,0,0,0,0,.1,0,.2,0,.5.2.7,0,0,0,.2,0,.3,0,.1,0,.3.2.3,0,0,0,0,0,0,0,.3.3.6.3.9,0,.3.2.6.4.8,0,0,0,.1.1.2,0,.1,0,.3.2.4,0,0,0,0,0,.1,0,.3.2.5.5.7,0,0,0,0,0,0,0,.3.3.5.5.7.2.2.3.5.6.6,0,0,0,0,0,.1,0,.3.3.4.5.6.1.1.3.2.4.4.1,0,.2.2.3.3.2,0,.2.3.4.3.2.4.7.6.9.9,0,0,0,0,.1,0,.2,0,.6.4.7.5,0,0,0,0,.1,0,.3,0,.5.3.7.5,0,0,0,0,0,0,.4,0,.6.3.8.5,0,0,0,0,0,0,.5.1.9.6,1.4.7.1.3.6.2.7.5,0,0,.3,0,.4,0,.1,0,.3,0,.3.2,0,0,0,0,0,0,.4,0,.6.3.9.3.2,0,.3,0,.5.2,0,0,.3,0,.4.1.1,0,.3,0,.4.2,0,0,0,0,0,0,.5,0,.7.5,1,.8.3.2.3.5.3.7,0,.3,0,.6,0,.9,0,.4-.2.6-.5.8,0,0-.2.2-.2.2-.2.2-.4.3-.7.3,0,0-.2,0-.3.1-.1,0-.5.1-.6,0-.2-.2-.4-.2-.6-.2-.2,0-.4,0-.4-.2,0,0,0,0,0,0-.2,0-.5,0-.6-.1-.2-.1-.3-.2-.5-.2-.2,0-.3,0-.4-.2,0,0-.1,0-.2,0-.2,0-.4,0-.5-.2,0,0-.1,0-.2,0-.1,0-.2,0-.3-.2,0,0-.3-.1-.4-.1-.1,0-.3,0-.3-.2,0,0,0,0-.1,0-.2,0-.4,0-.4-.2,0,0,0,0,0,0-.4,0-.6-.3-.9-.5-.2-.1-.4-.3-.7-.4-.1,0-.3,0-.3-.2,0,0,0,0-.1,0-.3,0-.5-.3-.7-.5,0,0,0,0,0,0-.3,0-.5-.3-.7-.5,0-.1-.2-.2-.4-.3-.3-.1-.6-.3-.7-.6-.4,0-.5-.6-.9-.6-.1,0-.2-.3-.4-.3-.1-.3-.5-.4-.6-.7-.4-.2-.6-.7-1-.9,0,0,0,0,0,0,0-.3-.3-.5-.5-.7-.1-.2-.4-.3-.4-.6,0-.2-.2-.3-.3-.5-.1-.2-.4-.4-.5-.7,0,0,0-.1-.1-.1,0,0-.1,0-.1-.1-.2-.3-.3-.7-.5-1,0,0,0-.2,0-.2,0-.1-.1-.2-.2-.3,0,0,0-.1,0-.2,0,0,0-.3-.1-.3-.1,0-.1-.2-.1-.3,0-.1,0-.3-.2-.4,0,0,0,0,0,0,0-.3-.2-.6-.3-.9,0-.2,0-.4-.2-.5,0,0,0-.2,0-.3,0-.3,0-.5-.2-.8-.1-.2,0-.4-.1-.7,0-.1,0-.2-.1-.4,0,0,0-.2,0-.3,0-.2,0-.4,0-.6,0,0,0-.2,0-.2-.3-.2-.2-.4-.2-.6,0-.3,0-.7,0-1,0-.2,0-.3-.2-.4,0,0,0-.2,0-.3,0-.6,0-1.2,0-1.8,0-.1,0-.3-.2-.4,0,0,0-.2,0-.2,0-.3,0-.6,0-.9,0-.2,0-.4-.2-.6,0,0,0-.2,0-.3,0-.3,0-.6-.2-.8,0,0,0-.2,0-.2,0-.2,0-.4-.2-.6,0,0,0-.1,0-.2,0-.1,0-.3-.2-.4,0,0,0,0,0,0,0-.3-.2-.6-.5-.8,0,0,0-.1,0-.2-.1-.3-.4-.5-.6-.6-.2-.1-.4-.2-.5-.4-.1-.1-.2-.2-.4-.2,0,0-.2-.1-.3-.1-.1,0-.3,0-.4-.1-.2,0-.4,0-.6,0h0Z"/>
    <path class="cls-11" d="M53.7,70.6c-.2.1-.3.2-.5.4,0,0-.1,0-.2,0,0,0-.2,0-.2,0-.2.3-.5.2-.8.2,0,0-.1,0-.2,0-.3-.3-.6-.2-1-.3,0,0-.2,0-.2,0,0-.2-.3-.2-.5-.2-.2,0-.4,0-.4-.2,0,0,0,0-.1,0-.2,0-.4,0-.5-.2,0,0-.2,0-.3,0-.2,0-.4,0-.4-.2,0,0,0,0-.1,0-.2,0-.4,0-.4-.2,0,0-.1,0-.2,0-.1,0-.3,0-.3-.2,0,0,0,0,0,0-.4,0-.6-.3-.8-.5,0,0,0,0,0,0-.3,0-.4-.2-.6-.3-.2-.1-.3-.3-.5-.4,0,0,0,0-.1,0-.3,0-.5-.3-.7-.5-.3-.3-.6-.5-.9-.9,0,0,0,0-.1,0-.3,0-.4-.3-.6-.4-.5-.5-.9-1.1-1.4-1.6-.2-.2-.5-.5-.7-.8,0-.2-.3-.3-.4-.4,0,0,0,0,0,0-.2-.5-.6-.8-1-1,0,0,0-.1-.1-.2-.1-.1-.4-.1-.5,0-.1.2-.2.4-.3.4-.2.1-.2.3-.3.4,0,.2-.3,0-.3.3-.5.4-.7.9-1.2,1.3,0,0-.1.1-.2.2-.1.2-.3.4-.5.6-.2.2-.4.4-.6.7-.2.2-.3.3-.5.5-.2.2-.4.4-.6.6-.1.1-.3.3-.4.4-.3.3-.6.4-.9.6-.2.2-.4.5-.7.7-.2.1-.4.3-.5.4-.3.2-.6.4-.8.7,0,0-.2.1-.3.2-.2,0-.4.2-.6.4-.2.2-.4.4-.7.5-.2,0-.4.2-.4.3,0,.2-.2.2-.3.2,0,0-.2.1-.2.2,0,0,0,0,0,0-.3,0-.4.2-.6.3-.2,0-.1.3-.4.3-.2,0-.3,0-.4.2,0,0,0,0-.1,0-.1,0-.3,0-.4.2,0,0-.1,0-.2,0-.2,0-.3.2-.5.3-.2,0-.4,0-.5.2,0,0-.1,0-.2,0-.2,0-.4,0-.5.2,0,0-.1,0-.2,0-.2,0-.3,0-.4.2-.1.2-.7.1-.9,0-.1,0-.2-.1-.4-.1-.3,0-.5-.2-.7-.4-.2-.2-.4-.3-.3-.6-.4-.4-.2-.9-.2-1.3,0,0,0-.1.1-.2,0,0,.1-.1.1-.2,0-.3.3-.4.4-.6,0,0,0,0,0,0,.3-.1.5-.2.8-.3,0,0,.1,0,.2-.1,0,0,.1-.1.2-.1.2,0,.3,0,.4-.2,0,0,.1,0,.2,0,.1,0,.3,0,.4-.2,0,0,0,0,.1,0,.2,0,.3,0,.4-.2,0,0,.1,0,.2,0,.1,0,.3,0,.3-.2,0,0,0,0,0,0,.4,0,.6-.2.8-.5,0,0,0,0,.1,0,.3,0,.5-.3.7-.5,0,0,.1,0,.2-.1.2-.1.5-.2.6-.3.1-.2.2-.2.4-.3.2,0,.3-.2.5-.3,0,0,0-.1.1-.2.4-.4.9-.6,1.3-1,.1-.1.3-.3.5-.3.1,0,0-.3.3-.3.1-.3.5-.4.7-.6.3-.3.6-.6.9-1,.2-.2.5-.5.7-.7,0,0,.1,0,.1-.1,0-.3.2-.4.4-.5.2-.2.5-.4.7-.7.2-.3.6-.5.7-.9,0-.2.3-.1.3-.4.4-.2.6-.7,1.1-.9,0-.2.3-.2.5-.3.2-.1.3-.2.5-.2,0,0,.1,0,.1,0,.1-.3.4-.2.6-.2.7,0,1.4,0,2,0,.1,0,.2,0,.3.1,0,0,0,0,0,0,.4,0,.5.3.9.3.2,0,.3.2.5.4,0,0,0,0,.1.1.3.1.5.4.7.6.3.2.4.5.7.7.1,0,.2.3.3.4.3.3.6.6.9,1,.2.2.4.5.7.7.2.2.5.5.7.7.2.2.5.5.7.7.3.3.6.6.9.8,0,0,0,0,.1,0,.1,0,.6.4.7.5.2.1.4.3.6.4.1,0,.2,0,.3.2,0,0,.2,0,.3.1.1,0,.2,0,.3.2,0,0,.1,0,.2.1.1,0,.3,0,.3.2,0,0,0,0,0,0,.4,0,.7.4,1.1.3,0,0,.2,0,.2,0,0,.2.3.2.4.2.2,0,.4,0,.5.2,0,0,.2,0,.3,0,.5,0,.8.4,1,.7,0,.1.3.2.3.4,0,.2,0,.3.2.4.1.1,0,.7,0,.8,0,0,0,0,0,0,0,.4-.4.6-.4.9"/>
    <path class="cls-11" d="M15.6,67.9c-.1-.2-.2-.3-.3-.5,0,0,0-.1,0-.2,0-.2,0-.3-.2-.5,0,0,0-.4,0-.6,0-.1.1-.2.1-.4,0-.5.4-.8.7-1.1.2-.2.3-.3.6-.3.2-.3.6-.2.8-.5,0,0,0,0,0,0,.4,0,.6-.3,1-.3,0,0,.2,0,.2,0,0-.2.2-.2.4-.2.1,0,.5-.3.6-.4,0,0,0,0,0,0,.3,0,.5-.3.7-.3.3,0,.5-.2.6-.4,0,0,.1,0,.2,0,.2,0,.3,0,.4-.2,0,0,0,0,.1,0,.3,0,.5-.3.7-.5.2-.1.3-.4.6-.4.1,0,.3-.1.4-.3.2-.3.6-.4.7-.7,0,0,0,0,0,0,.3,0,.5-.3.7-.5.3-.2.5-.5.7-.7.2-.1.3-.3.4-.4.2-.2.5-.5.7-.7.1-.1.2-.2.3-.4.3-.3.5-.5.8-.8.2-.2.3-.4.4-.6,0-.2.3-.3.4-.4.2-.2.4-.4.5-.7,0-.1.2-.2.3-.4.2-.2.4-.4.5-.8,0-.2.2-.3.4-.4,0,0,0,0,0-.1.1-.3.2-.6.4-.8.2-.2.1-.6.5-.7,0,0,0,0,0,0,0-.3.1-.4.3-.6,0,0,0-.2.2-.2,0,0,0-.3.1-.4,0-.1,0-.3.2-.4,0,0,0,0,0,0,0-.4.3-.6.3-.9,0,0,0-.1,0-.2,0-.2.2-.4.2-.5,0-.1,0-.2.1-.3,0,0,.1-.3.1-.4,0-.2,0-.3.2-.5,0,0,0-.3,0-.5,0-.2,0-.4.2-.6.1,0,0-.3,0-.5,0-.2,0-.4.2-.5,0,0,0,0,0-.1,0-.3.3-.5.5-.7.2-.2.4-.3.6-.3,0,0,.1,0,.2,0,.2-.3.5-.2.8-.2,0,0,.1,0,.2,0,0,0,.1,0,.2.1.4.1.7.4,1,.7.2.2.3.5.3.8,0,.5,0,1,0,1.4,0,0,0,0,0,0-.3.3-.3.7-.3,1.1,0,0,0,0,0,0-.2,0-.2.3-.2.4,0,.2,0,.4-.2.5,0,0,0,.3,0,.5,0,.1,0,.3-.2.3,0,0,0,0,0,0-.1.3-.2.6-.3,1,0,.1,0,.3-.2.4,0,0,0,0,0,0,0,.4-.3.6-.3.9,0,0,0,0-.1.1,0,0-.1.1-.1.2,0,.2,0,.3-.2.4,0,0,0,.1,0,.2,0,.1,0,.2-.2.3,0,0,0,.1,0,.2,0,.1,0,.3-.2.3,0,0,0,0,0,.1,0,.3-.3.6-.5.8,0,0,0,.1,0,.2,0,.1,0,.2-.2.3,0,0,0,0,0,0,0,.4-.3.6-.6.9,0,0,0,0,0,0,0,.2-.3.5-.5.7-.1.1-.3.3-.3.5-.2.4-.5.7-.8.9,0,0,0,0,0,0-.1.5-.5.7-.8,1-.2.2-.4.5-.7.7-.3.3-.6.6-.9.9-.4.4-.9.8-1.3,1.2-.3.3-.7.6-1,1,0,0,0,0-.1,0-.3,0-.5.3-.7.5-.2.1-.3.3-.5.4-.2,0-.4.2-.5.3,0,.2-.4.1-.4.4,0,0,0,0,0,0-.3,0-.5.2-.6.3-.3.3-.8.3-1,.8,0,0-.1,0-.2,0-.1,0-.3,0-.3.2,0,0-.1,0-.2,0-.1,0-.3,0-.4.2,0,0-.1,0-.2,0-.1,0-.3,0-.4.2,0,0,0,0-.1,0-.3,0-.5.3-.7.5,0,0,0,0,0,0-.3,0-.6.2-.9.3-.1,0-.3,0-.4.2,0,0-.1,0-.2,0-.1,0-.3,0-.4.2,0,0-.2,0-.3,0-.2,0-.4,0-.5.2,0,0,0,0-.1,0-.3,0-.6.1-.8-.2,0,0,0,0-.2,0-.2,0-.3,0-.4-.2,0,0-.2,0-.3-.1"/>
    <path class="cls-11" d="M27.6,79.6c-.2-.3-.3-.6-.5-.8,0,0,0-.1,0-.2,0-.4,0-.8,0-1.2,0-.2.2-.2.2-.3.3-.4.7-.7,1-1.1.3-.3.7-.6,1-1,0,0,0,0,0,0,.4,0,.6-.5.9-.7.2,0,.3-.3.4-.4.2-.1.3-.4.6-.4,0,0,.1,0,.2-.1,0-.1.8-.6.9-.7.2-.2.4-.3.6-.5.2-.2.5-.4.8-.6.2-.2.4-.3.6-.5,0,0,0,0,.1,0,.3,0,.4-.3.7-.5.2-.1.3-.4.6-.4.2,0,.3-.3.5-.3.1-.3.5-.2.7-.5,0-.1.3-.2.4-.3.2,0,.3,0,.4-.3,0,0,.1,0,.2,0,0,0,.2,0,.2,0,.2-.4.6-.2.9-.3.1,0,.2,0,.4,0,0,0,.1,0,.2-.1,0,0,.2-.1.3,0,.5.2,1,.2,1.5.3.1,0,.2,0,.3.2,0,0,0,0,0,0,.3,0,.5.3.8.3.2,0,.3.2.5.3.2.2.4.5.7.5.1,0,.1.3.3.3.2.4.7.6.9.9,0,0,0,0,.1,0,.3.1.5.4.7.6.4.4.8.8,1.2,1,.3.2.6.5.9.7.2.1.3.4.6.6,0,0,0,.1,0,.2,0,.4,0,.9,0,1.3,0,.2,0,.4-.2.6,0,0,0,0,0,.1,0,.2-.4.5-.6.5,0,0-.2,0-.2,0-.1.3-.4.2-.6.2-.2,0-.4,0-.6,0-.2,0-.4,0-.4-.2,0,0,0,0-.1,0-.3,0-.5-.3-.7-.5-.1-.1-.3-.2-.4-.3-.3-.2-.5-.4-.7-.6-.4-.4-.8-.8-1.3-1.1-.4-.2-.6-.6-1-.8-.3-.2-.5-.5-.9-.7-.2,0-.3-.2-.4-.4,0-.1-.1-.1-.3-.1-.3,0-.6-.1-.8.2-.3,0-.5.2-.7.4-.3.3-.8.3-1,.7-.3,0-.3.4-.6.4-.2,0-.3.2-.4.3-.1.1-.2.3-.4.4,0,0,0,0,0,0-.5.1-.8.5-1.1.8-.1.2-.4.2-.6.3-.2.1-.3.2-.5.4-.2.2-.4.4-.6.5-.2,0-.3.2-.4.3-.2.2-.4.5-.7.7,0,0,0,0-.1,0-.3,0-.4.3-.7.5-.3.2-.5.4-.8.6-.1,0,0,.3-.3.3,0,.4-.5.2-.7.5,0,0-.1,0-.2,0-.3,0-.7,0-1,0-.2,0-.4,0-.5-.2,0,0-.3-.1-.4-.2"/>
    <path class="cls-11" d="M43.1,76.6c0,.2,0,.4.3.5,0,0,0,.2,0,.3,0,.2,0,.4.2.5,0,0,0,.2,0,.3,0,0-.1.2-.1.2,0,.6-.4.9-.7,1.2-.2.1-.4.2-.5.4,0,0,0,0-.1,0-.3,0-.5.3-.7.5-.1.1-.3.2-.4.3-.3.3-.6.5-.8.8,0,0,0,0-.1,0-.3.1-.6.3-.7.7,0,.2-.3.1-.3.4-.3.2-.4.4-.6.6,0,0-.2.2-.2.3,0,.1,0,.3-.2.3,0,0,0,0,0,.1,0,.1,0,.2-.2.3,0,0,0,0,0,0,0,.2,0,.4-.3.5,0,.3-.3.3-.3.6,0,0,0,0-.2,0,0,0-.2,0-.2,0-.6.5-1.2.3-1.8.2-.2-.2-.5-.2-.6-.5-.3,0-.3-.5-.5-.6,0,0,0,0,0,0,0-.5,0-1.1,0-1.6.3-.3.3-.8.7-1,0,0,0,0,0-.1.1-.3.4-.5.5-.8.2-.3.4-.5.6-.8.2-.2.3-.4.5-.6,0,0,0,0,0-.1,0,0,.4-.5.5-.6.2-.3.5-.5.7-.7.1-.1.3-.3.5-.4.2,0,.4-.2.5-.4.2-.3.5-.4.7-.7,0,0,0,0,.1,0,.3,0,.5-.3.7-.5.1-.1.3-.3.5-.3.4,0,.8-.4,1.2-.3.1,0,.2.1.3.2.4,0,.6.4,1,.5"/>
    <path class="cls-10" d="M92.7,37.5s-12,5.1-21.5,5.7c0,0-6.6.9-11,0v4.3c0,0,3.4,1.3,13.3-.8,0,0,8.5-1,18.1-5.8,0,0,4.2-2.9,4.6.2l.7-2.4-4.2-1.3Z"/>
    <path class="cls-10" d="M170.6,77.9c-.3,0-.6.3-.6.6s.3.6.6.6.6-.3.6-.6-.3-.6-.6-.6"/>
    <path class="cls-10" d="M172.4,43.9h-2.3c-.9,0-1.6-.7-1.6-1.6V12.7c0-.9.7-1.6,1.6-1.6h2.3c.9,0,1.6.7,1.6,1.6v29.6c0,.9-.7,1.6-1.6,1.6"/>
    <path class="cls-10" d="M172.4,61h-2.3c-.9,0-1.6-.7-1.6-1.6v-13.8c0-.9.7-1.6,1.6-1.6h2.3c.9,0,1.6.7,1.6,1.6v13.8c0,.9-.7,1.6-1.6,1.6"/>
    <g class="cls-17">
      <g class="cls-22">
        <path class="cls-12" d="M172.4,61h-2.3c-.9,0-1.6-.7-1.6-1.6v-13.8c0-.9.7-1.6,1.6-1.6h2.3c.9,0,1.6.7,1.6,1.6v13.8c0,.9-.7,1.6-1.6,1.6"/>
      </g>
    </g>
  </g>
  <g class="cls-15">
    <path class="cls-10" d="M170.1,18.9c.4,0,.7-.3.7-.7s-.3-.7-.7-.7-.7.3-.7.7.3.7.7.7"/>
    <g class="cls-17">
      <g class="cls-4">
        <rect class="cls-12" x="168.5" y="11.1" width="5.5" height="2.5"/>
      </g>
    </g>
    <g class="cls-17">
      <g class="cls-24">
        <rect class="cls-12" x="168.5" y="41.3" width="5.5" height="2.6"/>
      </g>
    </g>
    <g class="cls-17">
      <g class="cls-16">
        <rect class="cls-12" x="168.5" y="14.6" width="5.5" height=".6"/>
      </g>
    </g>
    <g class="cls-17">
      <g class="cls-29">
        <rect class="cls-12" x="168.5" y="18" width="5.5" height=".6"/>
      </g>
    </g>
    <g class="cls-17">
      <g class="cls-8">
        <rect class="cls-12" x="168.5" y="21.3" width="5.5" height=".6"/>
      </g>
    </g>
    <g class="cls-17">
      <g class="cls-13">
        <rect class="cls-12" x="168.5" y="27.5" width="5.5" height=".6"/>
      </g>
    </g>
    <g class="cls-17">
      <g class="cls-25">
        <rect class="cls-12" x="168.5" y="28.8" width="5.5" height=".6"/>
      </g>
    </g>
    <g class="cls-17">
      <g class="cls-21">
        <rect class="cls-12" x="168.5" y="30.1" width="5.5" height=".6"/>
      </g>
    </g>
    <g class="cls-17">
      <g class="cls-30">
        <rect class="cls-12" x="168.5" y="25.4" width="5.5" height="1.1"/>
      </g>
    </g>
    <g class="cls-17">
      <g class="cls-2">
        <rect class="cls-12" x="168.5" y="32.9" width="5.5" height="1.1"/>
      </g>
    </g>
    <g class="cls-17">
      <g class="cls-18">
        <rect class="cls-12" x="168.5" y="37.5" width="5.5" height="1"/>
      </g>
    </g>
  </g>
  <g>
    <path class="cls-10" d="M183.6,43.9h-2.3c-.9,0-1.6-.7-1.6-1.6V12.7c0-.9.7-1.6,1.6-1.6h2.3c.9,0,1.6.7,1.6,1.6v29.6c0,.9-.7,1.6-1.6,1.6"/>
    <path class="cls-10" d="M183.6,61h-2.3c-.9,0-1.6-.7-1.6-1.6v-13.8c0-.9.7-1.6,1.6-1.6h2.3c.9,0,1.6.7,1.6,1.6v13.8c0,.9-.7,1.6-1.6,1.6"/>
    <g class="cls-17">
      <g class="cls-5">
        <path class="cls-12" d="M183.6,61h-2.3c-.9,0-1.6-.7-1.6-1.6v-13.8c0-.9.7-1.6,1.6-1.6h2.3c.9,0,1.6.7,1.6,1.6v13.8c0,.9-.7,1.6-1.6,1.6"/>
      </g>
    </g>
  </g>
  <g class="cls-27">
    <path class="cls-10" d="M181.3,18.9c.4,0,.7-.3.7-.7s-.3-.7-.7-.7-.7.3-.7.7.3.7.7.7"/>
    <g class="cls-17">
      <g class="cls-7">
        <rect class="cls-12" x="179.7" y="11.1" width="5.5" height="2.5"/>
      </g>
    </g>
    <g class="cls-17">
      <g class="cls-3">
        <rect class="cls-12" x="179.7" y="41.3" width="5.5" height="2.6"/>
      </g>
    </g>
    <g class="cls-17">
      <g class="cls-28">
        <rect class="cls-12" x="179.7" y="14.6" width="5.5" height=".6"/>
      </g>
    </g>
    <g class="cls-17">
      <g class="cls-26">
        <rect class="cls-12" x="179.7" y="18" width="5.5" height=".6"/>
      </g>
    </g>
    <g class="cls-17">
      <g class="cls-23">
        <rect class="cls-12" x="179.7" y="21.3" width="5.5" height=".6"/>
      </g>
    </g>
    <g class="cls-17">
      <g class="cls-1">
        <rect class="cls-12" x="179.7" y="27.5" width="5.5" height=".6"/>
      </g>
    </g>
    <g class="cls-17">
      <g class="cls-14">
        <rect class="cls-12" x="179.7" y="28.8" width="5.5" height=".6"/>
      </g>
    </g>
    <g class="cls-17">
      <g class="cls-20">
        <rect class="cls-12" x="179.7" y="30.1" width="5.5" height=".6"/>
      </g>
    </g>
    <g class="cls-17">
      <g class="cls-31">
        <rect class="cls-12" x="179.7" y="25.4" width="5.5" height="1.1"/>
      </g>
    </g>
    <g class="cls-17">
      <g class="cls-19">
        <rect class="cls-12" x="179.7" y="32.9" width="5.5" height="1.1"/>
      </g>
    </g>
    <g class="cls-17">
      <g class="cls-6">
        <rect class="cls-12" x="179.7" y="37.5" width="5.5" height="1"/>
      </g>
    </g>
  </g>
</svg>